<?xml version="1.0" encoding="UTF-8" standalone="no"?>
<!DOCTYPE svg PUBLIC "-//W3C//DTD SVG 1.1//EN" "http://www.w3.org/Graphics/SVG/1.1/DTD/svg11.dtd">
<svg version="1.1" xmlns="http://www.w3.org/2000/svg" xmlns:xlink="http://www.w3.org/1999/xlink" preserveAspectRatio="xMidYMid meet" viewBox="0 0 640 640" width="640" height="640"><defs><path d="M-24.79 276.94L647.67 276.94L647.67 364.61L-24.79 364.61L-24.79 276.94Z" id="e1XaFdWFGv"></path><path d="M-24.79 -194.3L683.23 -194.3L683.23 416.89L-24.79 416.89L-24.79 -194.3Z" id="c1KbndnJxV"></path><path d="M491.38 195.39C502.42 195.39 511.38 204.35 511.38 215.39C511.38 227.77 511.38 244.9 511.38 257.27C511.38 268.32 502.42 277.27 491.38 277.27C444.47 277.27 323.74 277.27 276.83 277.27C265.78 277.27 256.83 268.32 256.83 257.27C256.83 244.9 256.83 227.77 256.83 215.39C256.83 204.35 265.78 195.39 276.83 195.39C323.74 195.39 444.47 195.39 491.38 195.39Z" id="b7OTe6RfHp"></path><path d="M341.61 120.32C352.65 120.32 361.61 129.27 361.61 140.32C361.61 152.69 361.61 169.82 361.61 182.2C361.61 193.24 352.65 202.2 341.61 202.2C294.7 202.2 173.96 202.2 127.05 202.2C116.01 202.2 107.05 193.24 107.05 182.2C107.05 169.82 107.05 152.69 107.05 140.32C107.05 129.27 116.01 120.32 127.05 120.32C173.96 120.32 294.7 120.32 341.61 120.32Z" id="b8peLmSqs"></path><path d="M-2.98 343.4L649.41 343.4L649.41 461.18L-2.98 461.18L-2.98 343.4Z" id="a3oHBuD7PS"></path><path d="M180.39 324.14C186.13 403.12 126.23 471.93 46.71 477.71C-32.82 483.49 -102.04 424.07 -107.78 345.09C-113.52 266.11 -53.62 197.3 25.9 191.52C105.42 185.74 174.64 245.16 180.39 324.14Z" id="a2W7on0o76"></path><path d="M-24.79 392.12L687.42 392.12L687.42 661.09L-24.79 661.09L-24.79 392.12Z" id="aBVbh2BI5"></path><path d="M365.4 337.7C370.88 337.7 375.32 342.15 375.32 347.62C375.32 393.05 375.32 519.39 375.32 564.82C375.32 570.3 370.88 574.74 365.4 574.74C359.29 574.74 350.88 574.74 344.76 574.74C339.28 574.74 334.84 570.3 334.84 564.82C334.84 519.39 334.84 393.05 334.84 347.62C334.84 342.15 339.28 337.7 344.76 337.7C350.88 337.7 359.29 337.7 365.4 337.7Z" id="c26opAbyx"></path><path d="M356.37 348.81C356.37 364.7 342.03 377.61 324.36 377.61C306.7 377.61 292.36 364.7 292.36 348.81C292.36 332.91 306.7 320 324.36 320C342.03 320 356.37 332.91 356.37 348.81Z" id="g4TsrCa0xF"></path><path d="M290.93 342.7C299.59 342.7 306.61 349.72 306.61 358.38C306.61 401.45 306.61 514.99 306.61 558.06C306.61 566.72 299.59 573.74 290.93 573.74C284.88 573.74 282.39 573.74 276.33 573.74C267.68 573.74 260.66 566.72 260.66 558.06C260.66 514.99 260.66 401.45 260.66 358.38C260.66 349.72 267.68 342.7 276.33 342.7C282.39 342.7 284.88 342.7 290.93 342.7Z" id="b1Xd8QezWo"></path><path d="M111.26 150.11C111.26 150.43 111.26 150.69 111.26 150.69C111.26 150.69 111.26 150.43 111.26 150.11C111.26 149.8 111.26 149.54 111.26 149.54C111.26 149.66 111.26 149.8 111.26 150.11Z" id="b4H9CoXwjF"></path><path d="M282.11 199.95C285.91 201.4 287.81 205.65 286.37 209.45C275.99 236.7 247.47 311.57 237.09 338.82C235.65 342.62 231.39 344.53 227.59 343.08C222.61 341.18 214.53 338.1 209.54 336.2C205.74 334.76 203.83 330.5 205.28 326.7C215.66 299.45 244.17 224.59 254.55 197.34C256 193.54 260.25 191.63 264.05 193.08C269.04 194.98 277.12 198.05 282.11 199.95Z" id="h3gl4vCy"></path><path d="M359.07 182.49C367.39 182.49 374.14 189.23 374.14 197.56C374.14 228.49 374.14 306.22 374.14 337.16C374.14 345.48 367.39 352.22 359.07 352.22C339.19 352.22 294.61 352.22 274.73 352.22C266.4 352.22 259.66 345.48 259.66 337.16C259.66 306.22 259.66 228.49 259.66 197.56C259.66 189.23 266.4 182.49 274.73 182.49C294.61 182.49 339.19 182.49 359.07 182.49Z" id="a58emM1NsB"></path><path d="M367.64 191.61C371.11 190.22 375.06 191.92 376.45 195.39C387.31 222.58 417.39 297.84 428.26 325.02C429.65 328.5 427.96 332.44 424.48 333.83C419.41 335.86 410.52 339.41 405.46 341.43C401.98 342.82 398.03 341.13 396.64 337.66C385.78 310.47 355.7 235.21 344.84 208.03C343.45 204.55 345.14 200.61 348.62 199.22C353.68 197.19 362.57 193.64 367.64 191.61Z" id="j2ebGJOvh8"></path><path d="M323.39 128.81C328.92 128.81 333.39 133.29 333.39 138.81C333.39 145.56 333.39 155.81 333.39 162.56C333.39 168.09 328.92 172.56 323.39 172.56C320.04 172.56 319.96 172.56 316.61 172.56C311.08 172.56 306.61 168.09 306.61 162.56C306.61 155.81 306.61 145.56 306.61 138.81C306.61 133.29 311.08 128.81 316.61 128.81C319.96 128.81 320.04 128.81 323.39 128.81Z" id="haInrR8yA"></path><path d="M377.24 86.32C377.24 118.68 351.59 144.94 320 144.94C288.41 144.94 262.76 118.68 262.76 86.32C262.76 53.97 288.41 27.7 320 27.7C351.59 27.7 377.24 53.97 377.24 86.32Z" id="aV9H78buh"></path><path d="M377.24 208.74C377.24 241.09 350 267.36 316.45 267.36C282.9 267.36 255.66 241.09 255.66 208.74C255.66 176.38 282.9 150.11 316.45 150.11C350 150.11 377.24 176.38 377.24 208.74Z" id="b1wLbaMXis"></path><path d="M260.66 321.41L371.84 321.41L371.84 356.81L260.66 356.81L260.66 321.41Z" id="a1vvgLhBG5"></path><path d="M329.44 320L375.39 320L375.39 370.8L329.44 370.8L329.44 320Z" id="c1fUZY5UpZ"></path><path d="M350.64 335.7C350.64 354.67 336.3 370.07 318.64 370.07C300.97 370.07 286.63 354.67 286.63 335.7C286.63 316.74 300.97 301.34 318.64 301.34C336.3 301.34 350.64 316.74 350.64 335.7Z" id="iwaE9Bk7l"></path><path d="M293.45 347.89C295.08 354.63 289.16 361.85 280.24 364C271.32 366.16 262.75 362.43 261.13 355.69C259.5 348.95 265.42 341.73 274.34 339.57C283.26 337.42 291.83 341.14 293.45 347.89Z" id="d2b6m7F1LU"></path><path d="M377.05 204.54C377.05 234.9 349.81 259.54 316.26 259.54C282.7 259.54 255.46 234.9 255.46 204.54C255.46 174.18 282.7 149.54 316.26 149.54C349.81 149.54 377.05 174.18 377.05 204.54Z" id="g3fpxYrOJd"></path><path d="M333.39 543.72L406.27 543.72L406.27 579.13L333.39 579.13L333.39 543.72Z" id="a3GdTGiYCT"></path><path d="M332.34 154.67C332.34 161.61 327.27 167.24 321.03 167.24C314.78 167.24 309.72 161.61 309.72 154.67C309.72 147.74 314.78 142.11 321.03 142.11C327.27 142.11 332.34 147.74 332.34 154.67Z" id="d1xGTmPHHQ"></path><path d="M261.94 179.19L293.72 191.4L245.02 318.14L213.24 305.93L261.94 179.19Z" id="dITdEBSAj"></path><path d="M390.54 322.67L422.32 310.46L373.62 183.71L341.84 195.93L390.54 322.67Z" id="b8fq7Mpv1"></path><path d="M283.49 60.23L356.37 60.23L356.37 100.9L283.49 100.9L283.49 60.23Z" id="b25IU8mfUF"></path><path d="M342.75 350.84C341.12 357.58 347.05 364.81 355.97 366.96C364.89 369.11 373.45 365.39 375.08 358.65C376.71 351.91 370.79 344.69 361.86 342.53C352.94 340.38 344.38 344.1 342.75 350.84Z" id="a45V25X3VK"></path><path d="M259.66 184.55L370.84 184.26L371.24 337.41L260.06 337.7L259.66 184.55Z" id="j4joEz2CBa"></path><path d="M359.42 106.07C359.42 113.79 341.75 120.06 320 120.06C298.25 120.06 280.58 113.79 280.58 106.07C280.58 98.35 298.25 92.09 320 92.09C341.75 92.09 359.42 98.35 359.42 106.07Z" id="fFpNPpWuw"></path><path d="M379.34 79.11C379.34 107.48 353.03 130.52 320.62 130.52C288.21 130.52 261.89 107.48 261.89 79.11C261.89 50.74 288.21 27.7 320.62 27.7C353.03 27.7 379.34 50.74 379.34 79.11Z" id="bicbShEx"></path><path d="M270.46 339.26L270.46 188.75" id="a3XsmJw0nn"></path><path d="M278.56 339.26L278.56 188.75" id="a55KHlpcTj"></path><path d="M327.86 184.26L330.58 184.26L330.58 339.33L327.86 339.33L327.86 184.26Z" id="e4sWoaezn5"></path><path d="M311.34 339.26L311.34 188.75" id="e3EHOlBqw4"></path><path d="M318.55 339.26L318.55 188.75" id="d58xsbW8Dn"></path><path d="M289.64 154.67L292.36 154.67L292.36 339.34L289.64 339.34L289.64 154.67Z" id="an4EJojcV"></path><path d="M292.36 154.21L295.08 154.21L295.08 338.88L292.36 338.88L292.36 154.21Z" id="f1HQInZbv"></path><path d="M359.42 339.26L359.42 188.75" id="d9trakTGW"></path><path d="M295.39 154.21L298.11 154.21L298.11 338.88L295.39 338.88L295.39 154.21Z" id="aRVcd9v1a"></path><path d="M330.64 184.65L333.37 184.65L333.37 339.72L330.64 339.72L330.64 184.65Z" id="c4sfZEbgPs"></path><path d="M368.05 193.39L375.79 193.39L375.79 339.66L368.05 339.66L368.05 193.39Z" id="bCj3Nkuf1"></path><path d="M298.11 152.02L300.84 152.02L300.84 339.34L298.11 339.34L298.11 152.02Z" id="ghZZPyG6h"></path><path d="M336.39 163.74L339.12 163.74L339.12 339.34L336.39 339.34L336.39 163.74Z" id="a3r7iXbPE"></path><path d="M339.12 155.05L341.84 155.05L341.84 339.72L339.12 339.72L339.12 155.05Z" id="a2cdEs2Ah"></path><path d="M333.37 179.38L336.09 179.38L336.09 339.33L333.37 339.33L333.37 179.38Z" id="c25YM13VlW"></path><path d="M286.85 156.47L289.57 156.47L289.57 338.88L286.85 338.88L286.85 156.47Z" id="bGTeAOGtI"></path><path d="M352.41 339.26L352.41 188.75" id="a2H1py2vX"></path><path d="M375.79 212.04L258.34 212.04" id="c1fPaSBbgc"></path><path d="M375.17 218.87L257.72 218.87" id="b3nWRxgTFP"></path><path d="M375.79 267.36L258.34 267.36" id="k4hbNMkFM6"></path><path d="M257.76 335.7L379.34 335.7L379.34 349.44L257.76 349.44L257.76 335.7Z" id="a1FGfZoGEP"></path><path d="M375.35 274.95L257.9 274.95" id="bl6nvJmLE"></path><path d="M379.34 317.28L261.89 317.28" id="e2ep0b3cZ5"></path><path d="M377.92 310.14L260.47 310.14" id="a7ULlqdu1"></path><path d="M429.25 567.22C429.25 580.19 418.95 590.72 406.27 590.72C393.59 590.72 383.3 580.19 383.3 567.22C383.3 554.25 393.59 543.72 406.27 543.72C418.95 543.72 429.25 554.25 429.25 567.22Z" id="fAciQyQGQ"></path><path d="M402.84 562.23L429.62 562.23L429.62 590.21L402.84 590.21L402.84 562.23Z" id="isUwqwL0y"></path><path d="M329.22 576.98L432.8 576.98L432.8 590.72L329.22 590.72L329.22 576.98Z" id="bbxjuWZfq"></path><path d="M307.17 543.72L234.29 543.72L234.29 579.13L307.17 579.13L307.17 543.72Z" id="e36Sy4u7Ks"></path><path d="M211.31 567.22C211.31 580.19 221.61 590.72 234.29 590.72C246.97 590.72 257.26 580.19 257.26 567.22C257.26 554.25 246.97 543.72 234.29 543.72C221.61 543.72 211.31 554.25 211.31 567.22Z" id="g1SZW4DsTk"></path><path d="M237.72 562.23L210.94 562.23L210.94 590.21L237.72 590.21L237.72 562.23Z" id="c5wNjKS4Ld"></path><path d="M311.34 576.98L207.76 576.98L207.76 590.72L311.34 590.72L311.34 576.98Z" id="b1XQ0crNH"></path><path d="M262.76 70.25L380.21 70.25L380.21 86.32L262.76 86.32L262.76 70.25Z" id="m2FusLNWCa"></path><path d="M373.28 106.07C373.28 125.04 350.07 140.44 321.48 140.44C292.9 140.44 269.69 125.04 269.69 106.07C269.69 87.11 292.9 71.71 321.48 71.71C350.07 71.71 373.28 87.11 373.28 106.07Z" id="a2GKcWeKvR"></path><path d="M376.63 93.13C376.63 100.07 372.09 105.7 366.5 105.7C360.91 105.7 356.37 100.07 356.37 93.13C356.37 86.2 360.91 80.57 366.5 80.57C372.09 80.57 376.63 86.2 376.63 93.13Z" id="b10rwS8Sxm"></path><path d="M283.02 87.23C283.02 94.17 278.48 99.8 272.89 99.8C267.3 99.8 262.76 94.17 262.76 87.23C262.76 80.3 267.3 74.67 272.89 74.67C278.48 74.67 283.02 80.3 283.02 87.23Z" id="ac7GGlMht"></path><path d="M308.06 99.8C308.06 104.05 302.99 107.51 296.75 107.51C290.51 107.51 285.44 104.05 285.44 99.8C285.44 95.54 290.51 92.09 296.75 92.09C302.99 92.09 308.06 95.54 308.06 99.8Z" id="abZLevKj8"></path><path d="M325.71 166.61C325.71 171.05 323.47 174.65 320.71 174.65C317.95 174.65 315.71 171.05 315.71 166.61C315.71 162.18 317.95 158.58 320.71 158.58C323.47 158.58 325.71 162.18 325.71 166.61Z" id="a2IwzNACQ9"></path><path d="M357.35 99.79C357.35 104.05 352.28 107.5 346.04 107.5C339.8 107.5 334.73 104.05 334.73 99.79C334.73 95.54 339.8 92.09 346.04 92.09C352.28 92.09 357.35 95.54 357.35 99.79Z" id="c7A07co3RG"></path><path d="M307.13 179.19L315.45 167.14L301.55 146.16L307.13 179.19Z" id="c2Yp3aO9cM"></path><path d="M318.55 180.66L318.55 189.13" id="fqfHUJ2dz"></path><path d="M318.55 337.7L318.55 177.76" id="h25cXKWDg"></path><path d="M331.96 183.13L323.63 172.19L337.53 153.13L331.96 183.13Z" id="d2jd1jUmbY"></path><path d="M311.34 180.66L311.34 189.13" id="d1pOaEKf70"></path><path d="M402.84 576.22L402.84 543.72" id="c2d6qCCRkC"></path><path d="M237.72 576.22L237.72 543.72" id="b9X6FreFK"></path><path d="M283.49 90.91C283.49 100.68 278.95 108.61 273.35 108.61C267.76 108.61 263.22 100.68 263.22 90.91C263.22 81.14 267.76 73.2 273.35 73.2C278.95 73.2 283.49 81.14 283.49 90.91Z" id="c1bM22SuS"></path><path d="M356.37 176.93L364.95 171.8L370.71 181.45L362.13 186.58L356.37 176.93Z" id="b24AvEmXrU"></path><path d="M353.58 173.26L361.41 167.04L365.25 171.87L357.42 178.09L353.58 173.26Z" id="d2rtUKD3nr"></path><path d="M362.15 184.73L371.64 181.58L375.17 192.25L365.68 195.39L362.15 184.73Z" id="i12i8XF5X4"></path><path d="M361.75 183.4L370.28 178.17L376.15 187.75L367.62 192.98L361.75 183.4Z" id="e2eqX5JRZa"></path><path d="M356.37 176.17L364.71 170.65L370.91 180.02L362.56 185.54L356.37 176.17Z" id="fSRfD4j4X"></path><path d="M359.96 166.2C361.81 167.63 362.15 170.29 360.72 172.14C360.2 172.81 361.24 171.47 360.72 172.14C359.29 173.99 356.63 174.33 354.78 172.9C352.24 170.94 347.99 167.65 345.45 165.69C343.6 164.25 343.26 161.59 344.69 159.74C345.21 159.07 344.17 160.41 344.69 159.74C346.12 157.89 348.78 157.55 350.63 158.98C353.17 160.94 357.42 164.24 359.96 166.2Z" id="b5KhVTuDIE"></path><path d="M378.66 86.32C378.66 90.76 376.42 94.36 373.66 94.36C370.9 94.36 368.66 90.76 368.66 86.32C368.66 81.89 370.9 78.29 373.66 78.29C376.42 78.29 378.66 81.89 378.66 86.32Z" id="d4RJqSn8jq"></path><path d="M376.97 89.36C377.62 89.55 378 90.24 377.8 90.9C377.48 91.95 376.9 93.91 376.58 94.96C376.38 95.62 375.69 95.99 375.04 95.79C374.8 95.72 375.28 95.86 375.04 95.79C374.38 95.6 374.01 94.91 374.21 94.25C374.52 93.2 375.11 91.24 375.43 90.19C375.62 89.53 376.31 89.16 376.97 89.36C377.21 89.43 376.73 89.29 376.97 89.36Z" id="cev0KEXvf"></path><path d="M385.82 100.2C384.51 107.01 380.39 111.95 376.62 111.23C372.85 110.5 370.86 104.38 372.17 97.57C373.48 90.76 377.6 85.82 381.37 86.55C385.13 87.27 387.13 93.39 385.82 100.2Z" id="b1dAxzbEAV"></path><path d="M269.6 98.07C270.3 104.97 267.78 110.89 263.96 111.28C260.15 111.67 256.48 106.38 255.78 99.48C255.07 92.58 257.6 86.66 261.41 86.28C265.23 85.89 268.89 91.17 269.6 98.07Z" id="bWIo3X7PR"></path><path d="M317.36 171L318.89 183.76" id="ccXNswtFo"></path><path d="M323.63 171.8L319.18 183.71" id="ba8M3nPJ1Z"></path><path d="M333.38 148.69C333.38 155.63 327.38 161.26 319.99 161.26C312.6 161.26 306.6 155.63 306.6 148.69C306.6 141.76 312.6 136.13 319.99 136.13C327.38 136.13 333.38 141.76 333.38 148.69Z" id="e2R983y03a"></path><path d="M364.87 184.83L374.06 181.49L420.43 309.1L411.24 312.44L364.87 184.83Z" id="cq03cLbQn"></path><path d="M350.64 120.06L286.85 120.06" id="g9ulyfSXy"></path><path d="M419.62 298.98L386.22 310.7L389.94 321.3L423.34 309.58L419.62 298.98Z" id="b5IQvDEPqX"></path><path d="M418.52 290.03C416.72 290.67 415.79 292.65 416.43 294.45C417.9 298.53 421.12 307.52 422.58 311.6C423.22 313.39 425.2 314.33 427 313.68C428.23 313.24 428.67 313.09 429.9 312.64C431.7 312 432.64 310.02 431.99 308.22C430.53 304.14 427.31 295.16 425.85 291.08C425.2 289.28 423.22 288.34 421.42 288.99C420.19 289.43 419.75 289.59 418.52 290.03Z" id="b1Nf6cHxpG"></path><path d="M180.77 294.3L213.48 280.8L239.7 344.34L206.98 357.84L180.77 294.3Z" id="d2UtKzlNT"></path><path d="" id="d502YjcCI"></path><path d="M398.43 317.28L394.03 308.12" id="b8D5zfuFo"></path><path d="M404.78 314.72L400.39 305.56" id="gUl2Swpgu"></path><path d="M412.14 312.7L407.75 303.54" id="amSQ2cvxC"></path><path d="M418.43 310.14L414.03 300.98" id="awyrb3C5J"></path><path d="M392.11 320L387.72 310.84" id="gOfSnocw"></path><path d="M416.23 293.98L422.79 312.7L425.61 313.89L432.2 311.41L432.2 309.12L425.61 290.11L422.79 288.78L416.81 290.99L416.23 293.98Z" id="b3kvaIMl"></path><path d="M424.21 310.84L426.01 311.68L429.76 310.84L429.76 308.12L424.21 292.3L422.32 291.49L419.34 292.79L419.34 295.23L424.21 310.84Z" id="d1IrhSAfFO"></path><path d="M184.25 294.51L211.42 283.36L236.21 343.77L209.05 354.92L184.25 294.51Z" id="b4FYJCd1pv"></path><path d="M379.6 60.23C384.49 60.23 388.46 64.2 388.46 69.09C388.46 71.92 388.46 71.52 388.46 74.35C388.46 79.24 384.49 83.21 379.6 83.21C354.23 83.21 287 83.21 261.64 83.21C256.74 83.21 252.77 79.24 252.77 74.35C252.77 71.52 252.77 71.92 252.77 69.09C252.77 64.2 256.74 60.23 261.64 60.23C287 60.23 354.23 60.23 379.6 60.23Z" id="edimciS33"></path><path d="M320.11 111.3L327.86 109.34L321.04 100.06" id="bhwwVQCGV"></path><path d="M270.46 170.65L270.46 188.75" id="blKqzy6jF"></path><path d="M278.56 161.26L278.56 188.75" id="b2MYWgCt9P"></path><path d="M311.34 173.78L311.34 180.66" id="a2rdheyvRY"></path><path d="M352.41 161.26L352.41 188.75" id="a5tGkTSkjm"></path><path d="M359.42 171.61L359.42 189.71" id="ciBNs5n11"></path><path d="M359.42 165.94L359.42 171.04" id="a163zBbsMz"></path><path d="M279.57 518.28C285.1 518.28 289.57 522.75 289.57 528.28C289.57 533.66 289.57 539.8 289.57 545.18C289.57 550.7 285.1 555.18 279.57 555.18C275.02 555.18 271.38 555.18 266.83 555.18C261.3 555.18 256.83 550.7 256.83 545.18C256.83 539.8 256.83 533.66 256.83 528.28C256.83 522.75 261.3 518.28 266.83 518.28C271.38 518.28 275.02 518.28 279.57 518.28Z" id="b228hJTHin"></path><path d="M358.26 518.28C352.74 518.28 348.26 522.75 348.26 528.28C348.26 533.66 348.26 539.8 348.26 545.18C348.26 550.7 352.74 555.18 358.26 555.18C362.81 555.18 366.46 555.18 371.01 555.18C376.53 555.18 381.01 550.7 381.01 545.18C381.01 539.8 381.01 533.66 381.01 528.28C381.01 522.75 376.53 518.28 371.01 518.28C366.46 518.28 362.81 518.28 358.26 518.28Z" id="cgUsio2M2"></path><path d="M315.45 166.61L317.36 170.65" id="mRiDLPoZF"></path><path d="M204.33 66.81C215.38 66.81 224.33 75.77 224.33 86.81C224.33 99.19 224.33 116.32 224.33 128.69C224.33 139.74 215.38 148.69 204.33 148.69C157.42 148.69 36.69 148.69 -10.22 148.69C-21.27 148.69 -30.22 139.74 -30.22 128.69C-30.22 116.32 -30.22 99.19 -30.22 86.81C-30.22 75.77 -21.27 66.81 -10.22 66.81C36.69 66.81 157.42 66.81 204.33 66.81Z" id="cVTTiLXN"></path><path d="M375.79 303.98L382.7 303.98L382.7 322.24L375.79 322.24L375.79 303.98Z" id="a66aLOaUG"></path><path d="M303.53 99.8C303.53 103.59 300.42 106.67 296.58 106.67C292.75 106.67 289.64 103.59 289.64 99.8C289.64 96.01 292.75 92.93 296.58 92.93C300.42 92.93 303.53 96.01 303.53 99.8Z" id="a3240CbsxQ"></path><path d="M352.98 99.8C352.98 103.59 349.87 106.67 346.04 106.67C342.2 106.67 339.09 103.59 339.09 99.8C339.09 96.01 342.2 92.93 346.04 92.93C349.87 92.93 352.98 96.01 352.98 99.8Z" id="bO0ccKAtN"></path><path d="M301 99.8C301 102.9 298.76 105.42 296 105.42C293.24 105.42 291 102.9 291 99.8C291 96.7 293.24 94.18 296 94.18C298.76 94.18 301 96.7 301 99.8Z" id="g6UgRGRGD"></path><path d="M350.48 100.06C350.48 103.16 348.24 105.68 345.48 105.68C342.72 105.68 340.48 103.16 340.48 100.06C340.48 96.96 342.72 94.44 345.48 94.44C348.24 94.44 350.48 96.96 350.48 100.06Z" id="ambqrmacw"></path></defs><g><g><g><use xlink:href="#e1XaFdWFGv" opacity="1" fill="#649ca4" fill-opacity="1"></use></g><g><use xlink:href="#c1KbndnJxV" opacity="1" fill="#9fcfe4" fill-opacity="1"></use></g><g><use xlink:href="#b7OTe6RfHp" opacity="1" fill="#ffffff" fill-opacity="1"></use></g><g><use xlink:href="#b8peLmSqs" opacity="1" fill="#ffffff" fill-opacity="1"></use></g><g><use xlink:href="#a3oHBuD7PS" opacity="1" fill="#687e76" fill-opacity="1"></use></g><g><use xlink:href="#a2W7on0o76" opacity="1" fill="#ff9600" fill-opacity="1"></use></g><g><use xlink:href="#aBVbh2BI5" opacity="1" fill="#2d5c06" fill-opacity="1"></use></g><g><use xlink:href="#c26opAbyx" opacity="1" fill="#353535" fill-opacity="1"></use></g><g><use xlink:href="#g4TsrCa0xF" opacity="1" fill="#353535" fill-opacity="1"></use></g><g><use xlink:href="#b1Xd8QezWo" opacity="1" fill="#535050" fill-opacity="1"></use></g><g><use xlink:href="#b4H9CoXwjF" opacity="1" fill="#598fa5" fill-opacity="1"></use></g><g><use xlink:href="#h3gl4vCy" opacity="1" fill="#ffd184" fill-opacity="1"></use></g><g><use xlink:href="#a58emM1NsB" opacity="1" fill="#ffd184" fill-opacity="1"></use></g><g><use xlink:href="#j2ebGJOvh8" opacity="1" fill="#ffcf7e" fill-opacity="1"></use></g><g><use xlink:href="#haInrR8yA" opacity="1" fill="#ffd184" fill-opacity="1"></use></g><g><use xlink:href="#aV9H78buh" opacity="1" fill="#ffd184" fill-opacity="1"></use></g><g><use xlink:href="#b1wLbaMXis" opacity="1" fill="#ffd184" fill-opacity="1"></use></g><g><use xlink:href="#a1vvgLhBG5" opacity="1" fill="#535050" fill-opacity="1"></use></g><g><use xlink:href="#c1fUZY5UpZ" opacity="1" fill="#353535" fill-opacity="1"></use></g><g><use xlink:href="#iwaE9Bk7l" opacity="1" fill="#535050" fill-opacity="1"></use></g><g><use xlink:href="#d2b6m7F1LU" opacity="1" fill="#aa825d" fill-opacity="0"></use><g><use xlink:href="#d2b6m7F1LU" opacity="1" fill-opacity="0" stroke="#ffc300" stroke-width="1" stroke-opacity="1"></use></g></g><g><use xlink:href="#g3fpxYrOJd" opacity="1" fill="#cba17a" fill-opacity="1"></use></g><g><use xlink:href="#a3GdTGiYCT" opacity="1" fill="#ffffff" fill-opacity="1"></use></g><g><use xlink:href="#d1xGTmPHHQ" opacity="1" fill="#ffffff" fill-opacity="1"></use></g><g><use xlink:href="#dITdEBSAj" opacity="1" fill="#cba17a" fill-opacity="1"></use></g><g><use xlink:href="#b8fq7Mpv1" opacity="1" fill="#cba17a" fill-opacity="1"></use></g><g><use xlink:href="#b25IU8mfUF" opacity="1" fill="#ffffff" fill-opacity="1"></use></g><g><use xlink:href="#a45V25X3VK" opacity="1" fill="#aa825d" fill-opacity="0"></use><g><use xlink:href="#a45V25X3VK" opacity="1" fill-opacity="0" stroke="#ffc300" stroke-width="1" stroke-opacity="1"></use></g></g><g><use xlink:href="#j4joEz2CBa" opacity="1" fill="#cba17a" fill-opacity="1"></use></g><g><use xlink:href="#fFpNPpWuw" opacity="1" fill="#ffd184" fill-opacity="1"></use></g><g><use xlink:href="#bicbShEx" opacity="1" fill="#ffffff" fill-opacity="1"></use></g><g><g><use xlink:href="#a3XsmJw0nn" opacity="1" fill-opacity="0" stroke="#ff0000" stroke-width="1" stroke-opacity="1"></use></g></g><g><g><use xlink:href="#a55KHlpcTj" opacity="1" fill-opacity="0" stroke="#ff0000" stroke-width="1" stroke-opacity="1"></use></g></g><g><use xlink:href="#e4sWoaezn5" opacity="1" fill="#363532" fill-opacity="1"></use></g><g><g><use xlink:href="#e3EHOlBqw4" opacity="1" fill-opacity="0" stroke="#ff0000" stroke-width="1" stroke-opacity="1"></use></g></g><g><g><use xlink:href="#d58xsbW8Dn" opacity="1" fill-opacity="0" stroke="#ff0000" stroke-width="1" stroke-opacity="1"></use></g></g><g><use xlink:href="#an4EJojcV" opacity="1" fill="#ffffff" fill-opacity="1"></use></g><g><use xlink:href="#f1HQInZbv" opacity="1" fill="#363532" fill-opacity="1"></use></g><g><g><use xlink:href="#d9trakTGW" opacity="1" fill-opacity="0" stroke="#ff0000" stroke-width="1" stroke-opacity="1"></use></g></g><g><use xlink:href="#aRVcd9v1a" opacity="1" fill="#ffffff" fill-opacity="1"></use></g><g><use xlink:href="#c4sfZEbgPs" opacity="1" fill="#ffffff" fill-opacity="1"></use></g><g><use xlink:href="#bCj3Nkuf1" opacity="1" fill="#aa825d" fill-opacity="1"></use></g><g><use xlink:href="#ghZZPyG6h" opacity="1" fill="#363532" fill-opacity="1"></use></g><g><use xlink:href="#a3r7iXbPE" opacity="1" fill="#ffffff" fill-opacity="1"></use></g><g><use xlink:href="#a2cdEs2Ah" opacity="1" fill="#363532" fill-opacity="1"></use></g><g><use xlink:href="#c25YM13VlW" opacity="1" fill="#363532" fill-opacity="1"></use></g><g><use xlink:href="#bGTeAOGtI" opacity="1" fill="#363532" fill-opacity="1"></use></g><g><g><use xlink:href="#a2H1py2vX" opacity="1" fill-opacity="0" stroke="#ff0000" stroke-width="1" stroke-opacity="1"></use></g></g><g><g><use xlink:href="#c1fPaSBbgc" opacity="1" fill-opacity="0" stroke="#ff0000" stroke-width="1" stroke-opacity="1"></use></g></g><g><g><use xlink:href="#b3nWRxgTFP" opacity="1" fill-opacity="0" stroke="#ff0000" stroke-width="1" stroke-opacity="1"></use></g></g><g><g><use xlink:href="#k4hbNMkFM6" opacity="1" fill-opacity="0" stroke="#ff0000" stroke-width="1" stroke-opacity="1"></use></g></g><g><use xlink:href="#a1FGfZoGEP" opacity="1" fill="#050303" fill-opacity="1"></use></g><g><g><use xlink:href="#bl6nvJmLE" opacity="1" fill-opacity="0" stroke="#ff0000" stroke-width="1" stroke-opacity="1"></use></g></g><g><g><use xlink:href="#e2ep0b3cZ5" opacity="1" fill-opacity="0" stroke="#ff0000" stroke-width="1" stroke-opacity="1"></use></g></g><g><g><use xlink:href="#a7ULlqdu1" opacity="1" fill-opacity="0" stroke="#ff0000" stroke-width="1" stroke-opacity="1"></use></g></g><g><use xlink:href="#fAciQyQGQ" opacity="1" fill="#ffffff" fill-opacity="1"></use></g><g><use xlink:href="#isUwqwL0y" opacity="1" fill="#ffffff" fill-opacity="1"></use></g><g><use xlink:href="#bbxjuWZfq" opacity="1" fill="#dbd5a7" fill-opacity="1"></use></g><g><use xlink:href="#e36Sy4u7Ks" opacity="1" fill="#ffffff" fill-opacity="1"></use></g><g><use xlink:href="#g1SZW4DsTk" opacity="1" fill="#ffffff" fill-opacity="1"></use></g><g><use xlink:href="#c5wNjKS4Ld" opacity="1" fill="#ffffff" fill-opacity="1"></use></g><g><use xlink:href="#b1XQ0crNH" opacity="1" fill="#dbd5a7" fill-opacity="1"></use></g><g><use xlink:href="#m2FusLNWCa" opacity="1" fill="#ffd184" fill-opacity="1"></use></g><g><use xlink:href="#a2GKcWeKvR" opacity="1" fill="#ffd184" fill-opacity="1"></use></g><g><use xlink:href="#b10rwS8Sxm" opacity="1" fill="#ffd184" fill-opacity="1"></use></g><g><use xlink:href="#ac7GGlMht" opacity="1" fill="#ffd184" fill-opacity="1"></use></g><g><use xlink:href="#abZLevKj8" opacity="1" fill="#ffffff" fill-opacity="1"></use></g><g><use xlink:href="#a2IwzNACQ9" opacity="1" fill="#ffffff" fill-opacity="1"></use></g><g><use xlink:href="#c7A07co3RG" opacity="1" fill="#ffffff" fill-opacity="1"></use></g><g><g><use xlink:href="#c2Yp3aO9cM" opacity="1" fill-opacity="0" stroke="#000000" stroke-width="1" stroke-opacity="1"></use></g></g><g><g><use xlink:href="#fqfHUJ2dz" opacity="1" fill-opacity="0" stroke="#ff0000" stroke-width="1" stroke-opacity="1"></use></g></g><g><g><use xlink:href="#h25cXKWDg" opacity="1" fill-opacity="0" stroke="#000000" stroke-width="1" stroke-opacity="1"></use></g></g><g><g><use xlink:href="#d2jd1jUmbY" opacity="1" fill-opacity="0" stroke="#000000" stroke-width="1" stroke-opacity="1"></use></g></g><g><g><use xlink:href="#d1pOaEKf70" opacity="1" fill-opacity="0" stroke="#ff0000" stroke-width="1" stroke-opacity="1"></use></g></g><g><g><use xlink:href="#c2d6qCCRkC" opacity="1" fill-opacity="0" stroke="#411a1a" stroke-width="1" stroke-opacity="1"></use></g></g><g><g><use xlink:href="#b9X6FreFK" opacity="1" fill-opacity="0" stroke="#411a1a" stroke-width="1" stroke-opacity="1"></use></g></g><g><use xlink:href="#c1bM22SuS" opacity="1" fill="#ffd184" fill-opacity="1"></use></g><g><use xlink:href="#b24AvEmXrU" opacity="1" fill="#aa825d" fill-opacity="1"></use></g><g><use xlink:href="#d2rtUKD3nr" opacity="1" fill="#aa825d" fill-opacity="1"></use></g><g><use xlink:href="#i12i8XF5X4" opacity="1" fill="#aa825d" fill-opacity="1"></use></g><g><use xlink:href="#e2eqX5JRZa" opacity="1" fill="#aa825d" fill-opacity="1"></use></g><g><use xlink:href="#fSRfD4j4X" opacity="1" fill="#aa825d" fill-opacity="1"></use></g><g><use xlink:href="#b5KhVTuDIE" opacity="1" fill="#aa825d" fill-opacity="1"></use></g><g><use xlink:href="#d4RJqSn8jq" opacity="1" fill="#ffd184" fill-opacity="1"></use></g><g><use xlink:href="#cev0KEXvf" opacity="1" fill="#ffd184" fill-opacity="1"></use></g><g><use xlink:href="#b1dAxzbEAV" opacity="1" fill="#ffd184" fill-opacity="1"></use></g><g><use xlink:href="#bWIo3X7PR" opacity="1" fill="#ffd184" fill-opacity="1"></use></g><g><use xlink:href="#ccXNswtFo" opacity="1" fill="#000000" fill-opacity="1"></use><g><use xlink:href="#ccXNswtFo" opacity="1" fill-opacity="0" stroke="#411a1a" stroke-width="1" stroke-opacity="1"></use></g></g><g><g><use xlink:href="#ba8M3nPJ1Z" opacity="1" fill-opacity="0" stroke="#000000" stroke-width="1" stroke-opacity="1"></use></g></g><g><use xlink:href="#e2R983y03a" opacity="1" fill="#ffd184" fill-opacity="1"></use></g><g><use xlink:href="#cq03cLbQn" opacity="1" fill="#aa825d" fill-opacity="1"></use></g><g><g><use xlink:href="#g9ulyfSXy" opacity="1" fill-opacity="0" stroke="#621919" stroke-width="1" stroke-opacity="1"></use></g></g><g><use xlink:href="#b5IQvDEPqX" opacity="1" fill="#aa825d" fill-opacity="1"></use></g><g><use xlink:href="#b1Nf6cHxpG" opacity="1" fill="#ffffff" fill-opacity="1"></use></g><g><use xlink:href="#d2UtKzlNT" opacity="1" fill="#625b54" fill-opacity="1"></use></g><g><g><use xlink:href="#d502YjcCI" opacity="1" fill-opacity="0" stroke="#621919" stroke-width="1" stroke-opacity="1"></use></g></g><g><g><use xlink:href="#b8D5zfuFo" opacity="1" fill-opacity="0" stroke="#000000" stroke-width="1" stroke-opacity="1"></use></g></g><g><g><use xlink:href="#gUl2Swpgu" opacity="1" fill-opacity="0" stroke="#621919" stroke-width="1" stroke-opacity="1"></use></g></g><g><g><use xlink:href="#amSQ2cvxC" opacity="1" fill-opacity="0" stroke="#621919" stroke-width="1" stroke-opacity="1"></use></g></g><g><g><use xlink:href="#awyrb3C5J" opacity="1" fill-opacity="0" stroke="#621919" stroke-width="1" stroke-opacity="1"></use></g></g><g><g><use xlink:href="#gOfSnocw" opacity="1" fill-opacity="0" stroke="#621919" stroke-width="1" stroke-opacity="1"></use></g></g><g><g><use xlink:href="#b3kvaIMl" opacity="1" fill-opacity="0" stroke="#621919" stroke-width="1" stroke-opacity="1"></use></g></g><g><g><use xlink:href="#d1IrhSAfFO" opacity="1" fill-opacity="0" stroke="#621919" stroke-width="1" stroke-opacity="1"></use></g></g><g><use xlink:href="#b4FYJCd1pv" opacity="1" fill="#000000" fill-opacity="1"></use></g><g><use xlink:href="#edimciS33" opacity="1" fill="#dbdbdb" fill-opacity="1"></use></g><g><g><use xlink:href="#bhwwVQCGV" opacity="1" fill-opacity="0" stroke="#0c0909" stroke-width="1" stroke-opacity="1"></use></g></g><g><g><use xlink:href="#blKqzy6jF" opacity="1" fill-opacity="0" stroke="#ff0000" stroke-width="1" stroke-opacity="1"></use></g></g><g><g><use xlink:href="#b2MYWgCt9P" opacity="1" fill-opacity="0" stroke="#ff0000" stroke-width="1" stroke-opacity="1"></use></g></g><g><g><use xlink:href="#a2rdheyvRY" opacity="1" fill-opacity="0" stroke="#ff0000" stroke-width="1" stroke-opacity="1"></use></g></g><g><g><use xlink:href="#a5tGkTSkjm" opacity="1" fill-opacity="0" stroke="#ff0000" stroke-width="1" stroke-opacity="1"></use></g></g><g><g><use xlink:href="#ciBNs5n11" opacity="1" fill-opacity="0" stroke="#ff0000" stroke-width="1" stroke-opacity="1"></use></g></g><g><g><use xlink:href="#a163zBbsMz" opacity="1" fill-opacity="0" stroke="#ff0000" stroke-width="1" stroke-opacity="1"></use></g></g><g><use xlink:href="#b228hJTHin" opacity="1" fill="#ffffff" fill-opacity="1"></use></g><g><use xlink:href="#cgUsio2M2" opacity="1" fill="#ffffff" fill-opacity="1"></use></g><g><g><use xlink:href="#mRiDLPoZF" opacity="1" fill-opacity="0" stroke="#452d21" stroke-width="1" stroke-opacity="1"></use></g></g><g><use xlink:href="#cVTTiLXN" opacity="1" fill="#ffffff" fill-opacity="1"></use></g><g><use xlink:href="#a66aLOaUG" opacity="1" fill="#9fcfe4" fill-opacity="1"></use></g><g><use xlink:href="#a3240CbsxQ" opacity="1" fill="#3e5c9f" fill-opacity="1"></use></g><g><use xlink:href="#bO0ccKAtN" opacity="1" fill="#3e5c9f" fill-opacity="1"></use></g><g><use xlink:href="#g6UgRGRGD" opacity="1" fill="#000000" fill-opacity="1"></use></g><g><use xlink:href="#ambqrmacw" opacity="1" fill="#000000" fill-opacity="1"></use></g></g></g></svg>